<svg class="svg-icon" style="width: 1em;height: 1em;vertical-align: middle;fill: currentColor;overflow: hidden;" viewBox="0 0 1024 1024" version="1.1" xmlns="http://www.w3.org/2000/svg"><path d="M296.521143 208.837486c-31.714743 19.017143-95.144229 76.097829-82.475886 196.608 0 0 12.6976 57.109943-76.097828 120.539428 0 0-25.365943 12.668343 44.383085 38.034286 0 0 31.714743 6.3488 25.3952 50.761143 0 0-6.3488 95.144229 19.017143 114.161371 0 0 31.714743 50.761143 114.161372 0 0 0 31.714743-19.017143 63.429485 19.017143 12.6976 19.0464 31.714743 38.0928 44.412343 57.109943 31.714743 57.080686 38.034286 126.858971 25.365943 190.288457-19.017143 63.429486-190.288457-6.3488-291.781486-101.493028-12.668343-12.668343-44.383086-69.778286-44.383085-114.161372 0-19.017143 0-38.063543-19.017143-44.412343-63.458743-31.714743-120.539429-202.986057-19.0464-298.130285 38.034286-57.051429 57.080686-158.573714 57.080685-222.0032 0-25.365943 6.3488-50.731886 12.6976-76.097829 38.034286-95.144229 158.573714-101.522286 171.242058-95.144229 6.3488-6.3488 19.017143-12.6976 25.3952-12.6976C448.746057-13.165714 645.383314-13.165714 753.225143 62.932114l6.319543 6.3488c107.841829 82.446629 114.190629 215.6544 107.841828 285.432686 0 25.365943 12.6976 44.412343 31.714743 57.080686 50.731886 25.365943 76.127086 133.207771 76.127086 158.573714-19.017143 431.338057-393.274514 412.291657-393.274514 412.291657 63.429486-57.051429 82.446629-183.939657 82.446628-183.939657 50.761143-152.224914-183.939657-190.288457-183.939657-190.288457-202.986057-12.6976-114.161371-183.939657-114.161371-183.939657 63.429486-101.493029-38.063543-183.939657-38.063543-183.939657-12.6976-6.3488-19.017143-19.017143-31.714743-31.714743z"  /></svg>