<svg class="svg-icon" style="width: 1em; height: 1em;vertical-align: middle;fill: currentColor;overflow: hidden;" viewBox="0 0 1024 1024" version="1.1" xmlns="http://www.w3.org/2000/svg"><path d="M932 928h-840c-48 0-88-39.2-88-88V281.6c0-8.8 7.2-16 16-16h984c8.8 0 16 7.2 16 16v559.2c0 48-39.2 87.2-88 87.2zM36 297.6v543.2c0 30.4 24.8 56 56 56h840.8c30.4 0 56-24.8 56-56V297.6H36z"  /><path d="M680 712c-56 0-114.4-27.2-168-78.4-57.6 55.2-121.6 83.2-181.6 77.6-76-6.4-142.4-67.2-165.6-152-0.8-4 0.8-8 4-9.6 3.2-1.6 8-0.8 9.6 2.4 28 40 67.2 64 108 66.4 40.8 2.4 80.8-18.4 110.4-55.2 5.6-7.2 11.2-15.2 16.8-23.2 9.6-13.6 19.2-27.2 30.4-38.4 18.4-17.6 45.6-27.2 68-12 21.6-15.2 48.8-5.6 68 12 12 11.2 21.6 24.8 30.4 38.4 5.6 8 11.2 16 16.8 23.2 29.6 36.8 70.4 57.6 110.4 55.2 40.8-1.6 80-26.4 108-66.4 2.4-3.2 6.4-4 9.6-2.4 3.2 1.6 5.6 5.6 4 9.6-23.2 84-90.4 145.6-165.6 152-4 0-8.8 0.8-13.6 0.8zM196 596c28.8 55.2 80 94.4 135.2 98.4 57.6 4.8 119.2-23.2 175.2-78.4 3.2-3.2 8-3.2 11.2 0 55.2 55.2 117.6 83.2 175.2 78.4 55.2-4.8 106.4-43.2 135.2-98.4-26.4 23.2-57.6 36.8-89.6 38.4-45.6 2.4-91.2-20-124-61.6-6.4-8-12-16-17.6-24-9.6-13.6-18.4-26.4-28.8-36-14.4-13.6-35.2-21.6-50.4-8.8l-0.8 0.8c-3.2 3.2-8 3.2-11.2 0l-0.8-0.8c-15.2-13.6-36-5.6-50.4 8-10.4 9.6-19.2 22.4-28.8 36-5.6 8-11.2 16-17.6 24-32.8 41.6-78.4 63.2-124 61.6-30.4 0-61.6-13.6-88-37.6zM948 297.6H76c-8.8 0-16-7.2-16-16V135.2c0-21.6 17.6-40 40-40h824.8c21.6 0 40 17.6 40 40v146.4c-0.8 8.8-8 16-16.8 16z m-856-32h840.8V135.2c0-4-3.2-8-8-8H100c-4 0-8 3.2-8 8v130.4z"  /><path d="M192 289.6c-4.8 0-8-3.2-8-8V112c0-4.8 3.2-8 8-8s8 3.2 8 8v170.4c0 4-4 7.2-8 7.2zM320 289.6c-4.8 0-8-3.2-8-8V112c0-4.8 3.2-8 8-8s8 3.2 8 8v170.4c0 4-4 7.2-8 7.2zM448 289.6c-4.8 0-8-3.2-8-8V112c0-4.8 3.2-8 8-8s8 3.2 8 8v170.4c0 4-4 7.2-8 7.2zM576 289.6c-4.8 0-8-3.2-8-8V112c0-4.8 3.2-8 8-8s8 3.2 8 8v170.4c0 4-3.2 7.2-8 7.2zM704 289.6c-4.8 0-8-3.2-8-8V112c0-4.8 3.2-8 8-8s8 3.2 8 8v170.4c0 4-3.2 7.2-8 7.2zM832 289.6c-4.8 0-8-3.2-8-8V112c0-4.8 3.2-8 8-8s8 3.2 8 8v170.4c0 4-3.2 7.2-8 7.2z"  /></svg>