<svg class="svg-icon" style="width: 1em; height: 1em;vertical-align: middle;fill: currentColor;overflow: hidden;" viewBox="0 0 1024 1024" version="1.1" xmlns="http://www.w3.org/2000/svg"><path d="M911.793452 436.373579c-0.579191-5.115508-2.687202-9.899464-6.093788-13.812587L640.346133 102.338806C630.345362 90.454128 615.773482 83.637886 600.367607 83.637886L423.491177 83.637886c-15.405875 0-29.982872 6.816243-40.093137 18.833951L153.192008 380.051829l-35.132148 42.47744c-3.542686 4.142343-5.701862 9.382695-6.093788 14.798031-0.025583 0.331551-0.047072 0.660032-0.062422 0.988514-0.099261 0.89744-0.151449 1.808182-0.151449 2.731204 0 39.214117 31.902594 71.119781 71.119781 71.119781 17.978467 0 34.43323-6.722098 46.974871-17.785062 12.985756 11.504008 29.518291 17.788132 47.042409 17.788132 17.993816 0 34.458813-6.732331 47.006594-17.811668 12.995989 11.519358 29.523407 17.811668 47.01171 17.811668 17.993816 0 34.453696-6.730285 47.001477-17.811668 12.995989 11.519358 29.523407 17.811668 47.01171 17.811668 18.014282 0 34.500768-6.750751 47.053666-17.8526 12.526291 11.104919 28.981055 17.8526 46.964638 17.8526 18.014282 0 34.500768-6.748704 47.053666-17.85567 12.526291 11.104919 28.981055 17.85567 46.959521 17.85567 18.014282 0 34.500768-6.748704 47.053666-17.85567 12.526291 11.104919 28.981055 17.85567 46.959521 17.85567 18.014282 0 34.495652-6.748704 47.048549-17.850553 12.990872 11.542894 29.55513 17.850553 47.110971 17.850553 39.217187 0 71.124897-31.905664 71.124897-71.119781C912.2478 439.448614 912.091234 437.886025 911.793452 436.373579zM841.122903 464.089827c-6.15621 0-11.926634-2.38942-16.251126-6.727215-4.298909-4.317329-6.656607-10.045797-6.636141-16.126282 0.020466-6.390547-2.577708-12.526291-7.090489-17.054421-4.51278-4.526083-10.716063-7.068999-17.10661-7.068999-13.256932 0-24.00881 10.731412-24.040533 23.988344-0.026606 12.674671-10.360975 22.989597-23.033599 22.989597-12.468986 0-22.658046-10.108219-22.892383-22.614044 0-0.085958 0-0.177032 0-0.26606l-0.005117 0c0-0.038886 0-0.075725 0-0.11461-0.031722-13.256932-10.788717-23.985274-24.045649-23.983227-13.251815 0.00307-24.003693 10.731412-24.035416 23.988344-0.026606 12.674671-10.360975 22.989597-23.033599 22.989597-12.468986 0-22.658046-10.108219-22.892383-22.614044 0-0.085958 0-0.177032 0-0.26606l-0.005117 0c0-0.038886 0-0.075725 0-0.11461-0.031722-13.256932-10.788717-23.985274-24.040533-23.983227-13.256932 0.00307-24.00881 10.731412-24.040533 23.988344-0.025583 12.674671-10.360975 22.989597-23.033599 22.989597-12.468986 0-22.663162-10.105149-22.892383-22.605857 0-0.091074 0-0.182149 0-0.274246l-0.005117 0c0-0.036839 0-0.072655 0-0.109494-0.031722-13.256932-10.783601-23.988344-24.040533-23.988344-13.256932 0-24.00881 10.731412-24.040533 23.988344-0.026606 12.674671-10.360975 22.989597-23.038716 22.989597-6.119371 0-11.889795-2.402723-16.235776-6.766101-4.214998-4.226255-6.568602-9.771551-6.662747-15.661701 0.005117-0.148379 0.005117-0.299829 0.005117-0.451278 0.031722-13.272281-10.700713-24.058952-23.972994-24.097838-0.020466 0-0.047072 0-0.067538 0-13.240559 0-23.99346 10.710946-24.040533 23.956621 0 0.010233 0 0.020466 0 0.031722l-0.005117 0c-0.026606 12.674671-10.360975 22.989597-23.033599 22.989597-6.119371 0-11.889795-2.402723-16.235776-6.766101-4.209882-4.223185-6.568602-9.766434-6.662747-15.653515 0.005117-0.153496 0.005117-0.304945 0.005117-0.459464 0.031722-13.272281-10.700713-24.058952-23.972994-24.097838-0.020466 0-0.047072 0-0.067538 0-13.241582 0-23.99346 10.710946-24.040533 23.956621 0 0.010233 0 0.020466 0 0.031722l-0.005117 0c-0.025583 12.674671-10.360975 22.989597-23.038716 22.989597-6.15621 0-11.926634-2.38942-16.256242-6.730285-4.199649-4.214998-6.547113-9.774621-6.641257-15.69547 0.005117-0.148379 0.005117-0.302899 0.005117-0.454348 0.031722-13.272281-10.700713-24.058952-23.972994-24.097838-0.020466 0-0.047072 0-0.067538 0-13.241582 0-23.99346 10.710946-24.040533 23.956621 0 0.010233 0 0.020466 0 0.031722l-0.005117 0c-0.025583 12.674671-10.360975 22.986527-23.038716 22.986527-10.778484 0-19.851117-7.439436-22.355147-17.451464l259.781628-313.338405c0.803295-0.957815 2.060939-1.577938 3.192715-1.577938L600.367607 131.72202c1.616824 0 2.692319 0.988514 3.072989 1.439792l230.169193 277.68437 29.810956 36.037774C860.827687 456.770118 851.812359 464.089827 841.122903 464.089827z"  /><path d="M874.668926 581.339228c-10.924817-7.543813-25.897833-4.799306-33.441647 6.124488l-96.120175 139.203412L535.586185 726.667128 535.586185 542.946826c0-13.277398-10.763135-24.040533-24.040533-24.040533-13.277398 0-24.040533 10.763135-24.040533 24.040533l0 183.721325L264.446881 726.668151c-13.277398 0-24.040533 10.763135-24.040533 24.040533 0 13.277398 10.763135 24.040533 24.040533 24.040533l7.488555 0-30.928407 136.083351c-2.942005 12.9438 5.164626 25.825179 18.113543 28.767184 1.794879 0.412392 3.584642 0.604774 5.347798 0.604774 10.977006 0 20.889773-7.565303 23.419386-18.71934l33.350572-146.736992 166.267814 0 0 141.572366c0 13.277398 10.763135 24.040533 24.040533 24.040533 13.277398 0 24.040533-10.763135 24.040533-24.040533L535.587208 774.748193l144.564513 0 33.345456 146.736992c2.530636 11.154038 12.44238 18.71934 23.419386 18.71934 1.763157 0 3.558036-0.193405 5.347798-0.604774 12.948917-2.942005 21.056572-15.818267 18.113543-28.767184l-30.924313-136.083351 28.268834 0c7.898901 0 15.296381-3.8814 19.783579-10.382465l103.288434-149.585877C888.337227 603.856058 885.59272 588.883041 874.668926 581.339228z"  /></svg>