<svg class="svg-icon" style="width: 1em; height: 1em;vertical-align: middle;fill: currentColor;overflow: hidden;" viewBox="0 0 1024 1024" version="1.1" xmlns="http://www.w3.org/2000/svg"><path d="M828.755224 254.547417"  /><path d="M173.500543 526.653745c-28.009937 0-52.873208-4.924149-74.037227-14.653745l-0.312108 0-6.966669-3.567245c-56.69321-30.41266-91.789543-89.267093-91.837638-153.719011 0-19.146059 3.171226-38.231743 9.416464-56.752562l1.345648-4.684696 100.726076-240.140289c9.489118-27.710109 34.639938-44.285622 68.511373-44.285622l666.573471 0c38.219463 2.221598 61.905932 18.088984 71.898517 47.216371l95.729272 242.326071c5.957689 17.488303 9.104355 36.44198 9.104355 55.491849 0.144286 63.574944-34.304294 122.141828-89.867774 152.818501l0 0c-22.893406 12.659321-50.735521 19.194154-82.733283 19.386536-60.415998 0-115.427916-31.013341-147.281391-82.9492l-1.465374-2.618641c-1.51347-3.326768-3.171226-6.942109-5.957689-10.029424-2.570545-2.907213-6.581905-6.137791-15.566534-6.137791-6.845918 0-12.58769 2.654456-14.70184 5.273097-3.53143 4.03592-5.164626 7.435343-6.726192 10.714016l-1.537006 2.834558c-31.612998 51.587935-85.879949 82.624812-145.215336 83.009576-60.20008-0.312108-114.802676-31.40936-146.488329-83.201957l-1.51347-2.798742c-1.201361-2.49789-3.00238-6.173606-4.804423-8.227382-2.978844-3.543709-8.960069-6.426363-16.983813-6.426363-7.494695 0-12.707416 2.570545-13.860682 3.939729-3.939729 4.396123-5.693676 8.287757-6.870478 10.870582l-1.633197 3.207042C288.255123 495.592308 233.435587 526.473643 173.500543 526.653745zM111.161752 473.936079l1.657756 0.816598c16.527418 8.323573 36.921911 12.551874 60.60838 12.551874 46.195112-0.156566 88.546685-24.057929 113.217574-63.947428 1.321088-3.110851 5.02034-11.302417 12.251022-19.290345 9.224082-11.110035 25.704428-17.884322 43.913139-17.884322 18.809391 0 36.226063 7.423063 46.603411 19.878746 5.237281 5.897314 8.55177 12.755512 10.546194 16.851806 24.239054 39.613206 66.398246 63.683415 112.472608 63.923892 45.546336-0.312108 87.369883-24.310685 111.800295-64.22372 1.681292-3.591805 5.164626-10.858302 11.458983-18.005073 9.849322-12.17939 26.78504-19.602454 45.089941-19.602454 18.20871 0 33.751708 6.665817 44.945655 19.278065 6.702656 7.471159 10.329253 15.374152 12.059664 19.181875 24.166399 39.276539 66.6377 63.275115 113.14492 63.275115 25.223474-0.167822 46.723138-5.03262 63.827701-14.485923l0 0c43.00035-23.734564 69.641103-69.076238 69.544913-118.334105 0-14.773472-2.449795-29.475312-7.302313-43.720757-0.648776-2.306532-1.057075-3.820002-1.345648-5.152347l-93.734848-235.323587c-5.717212-16.59905-18.425651-20.515243-35.817764-21.536502l-665.756873 0.01228c-25.223474 0-29.979802 13.776771-31.781844 18.965957L48.079018 306.884412c-0.336668 1.381463-0.624217 2.342348-0.889253 3.207042-5.02034 14.905478-7.494695 29.763884-7.494695 44.61001 0.048095 49.918923 27.193339 95.488795 70.842465 118.91125L111.161752 473.936079z"  /><path d="M803.511283 295.894104 220.512253 295.894104c-10.858302 0-19.674085-8.804527-19.674085-19.674085 0-10.870582 8.815783-19.674085 19.674085-19.674085l582.999031 0c10.858302 0 19.674085 8.804527 19.674085 19.674085C823.185368 287.090601 814.369585 295.894104 803.511283 295.894104z"  /><path d="M847.160409 1015.148401l-670.296259 0c-44.753273 0-81.171718-36.406165-81.171718-81.171718L95.692433 609.963149c0-10.870582 8.815783-19.674085 19.674085-19.674085s19.674085 8.804527 19.674085 19.674085l0 324.013535c0 23.061228 18.761296 41.822524 41.822524 41.822524l670.296259 0c23.061228 0 41.822524-18.761296 41.822524-41.822524L888.98191 609.963149c0-10.870582 8.815783-19.674085 19.674085-19.674085 10.858302 0 19.674085 8.804527 19.674085 19.674085l0 324.013535C928.331104 978.74326 891.913683 1015.148401 847.160409 1015.148401z"  /></svg>