<svg class="svg-icon" style="width: 1em; height: 1em;vertical-align: middle;fill: currentColor;overflow: hidden;" viewBox="0 0 1024 1024" version="1.1" xmlns="http://www.w3.org/2000/svg"><path d="M539.2 583.2c-3.2 0-6.4-0.8-8.8-3.2l-108.8-75.2c-4-3.2-6.4-7.2-7.2-12l-24.8-456c-0.8-8 2.4-16.8 8-22.4 5.6-6.4 13.6-9.6 21.6-10.4l14.4-0.8c15.2 0 28.8 11.2 31.2 26.4l89.6 534.4c0.8 6.4-1.6 12.8-7.2 16-2.4 2.4-5.6 3.2-8 3.2zM445.6 484l71.2 48.8L433.6 36c-2.4 0-10.4 0.8-12 0.8l24 447.2zM444.8 645.6c-2.4 0-5.6-0.8-8-2.4-3.2-2.4-6.4-4-9.6-7.2-6.4-5.6-7.2-16-1.6-22.4 5.6-6.4 15.2-8 22.4-2.4 1.6 1.6 3.2 3.2 5.6 4 7.2 4.8 10.4 14.4 5.6 21.6-4 5.6-9.6 8.8-14.4 8.8z"  /><path d="M436.8 640c-4 0-7.2-1.6-10.4-4-6.4-5.6-7.2-16-1.6-22.4 5.6-6.4 16-7.2 22.4-1.6 6.4 5.6 7.2 16 1.6 22.4-2.4 4-7.2 5.6-12 5.6z"  /><path d="M460.8 652h-3.2c-8-1.6-15.2-4-21.6-8-7.2-4.8-10.4-14.4-5.6-21.6 4.8-7.2 14.4-10.4 21.6-5.6 3.2 2.4 7.2 3.2 11.2 4 8.8 1.6 14.4 9.6 12.8 18.4-0.8 7.2-7.2 12.8-15.2 12.8zM745.6 794.4c-9.6 0-18.4-2.4-25.6-8-10.4-7.2-16.8-17.6-19.2-28.8-2.4-12 0.8-24 7.2-33.6 8.8-12 22.4-19.2 37.6-19.2 9.6 0 18.4 2.4 25.6 8 10.4 7.2 16.8 17.6 19.2 28.8 2.4 12-0.8 24-7.2 33.6-8.8 11.2-23.2 19.2-37.6 19.2z m0-75.2c-9.6 0-19.2 4.8-24 12.8-4.8 6.4-6.4 14.4-4.8 21.6 1.6 8 5.6 14.4 12 19.2 4.8 3.2 10.4 5.6 16.8 5.6 9.6 0 19.2-4.8 24-12.8 4.8-6.4 6.4-14.4 4.8-21.6-1.6-8-5.6-14.4-12-19.2-4.8-3.2-11.2-5.6-16.8-5.6z"  /><path d="M745.6 875.2c-26.4 0-51.2-8-72.8-22.4-44-30.4-64-84.8-51.2-136l-89.6-64h-21.6c-8.8 0-16-7.2-16-16s7.2-16 16-16h26.4c3.2 0 6.4 0.8 9.6 3.2l102.4 74.4c5.6 4 8 12 5.6 18.4-14.4 40 0 85.6 35.2 110.4 16 11.2 35.2 16.8 54.4 16.8 31.2 0 60.8-15.2 78.4-40.8 2.4-3.2 4.8-7.2 6.4-11.2 3.2-6.4 11.2-10.4 18.4-8 40.8 10.4 86.4 6.4 128.8-12.8 0.8 0 0.8-0.8 1.6-0.8 8-4 11.2-13.6 7.2-21.6-4-8-14.4-12.8-23.2-8.8-23.2 10.4-46.4 15.2-69.6 15.2-19.2 0-33.6-3.2-43.2-6.4-5.6-1.6-10.4-7.2-11.2-12.8-4-26.4-17.6-48.8-40-64-16-11.2-35.2-16.8-54.4-16.8-21.6 0-42.4 7.2-59.2 20.8-5.6 4-12.8 4.8-19.2 0.8L42.4 245.6 36 256l411.2 356c6.4 5.6 7.2 16 1.6 22.4-5.6 6.4-16 7.2-22.4 1.6L15.2 280c-12-10.4-14.4-28.8-4.8-41.6l7.2-10.4c5.6-8.8 15.2-13.6 25.6-13.6 6.4 0 12.8 1.6 17.6 5.6l615.2 423.2c20.8-12.8 44.8-20 69.6-20 25.6 0 51.2 8 72.8 22.4 26.4 18.4 44.8 44.8 51.2 75.2 6.4 1.6 15.2 2.4 24.8 2.4 18.4 0 37.6-4 56.8-12.8 6.4-2.4 12.8-4 20-4 19.2 0 36.8 11.2 44.8 28.8 10.4 23.2 1.6 50.4-20.8 62.4l-4.8 2.4c-44.8 20-92.8 25.6-137.6 16.8-0.8 1.6-1.6 3.2-3.2 4-23.2 34.4-62.4 54.4-104 54.4z"  /><path d="M511.2 652.8h-40.8c-8.8 0-16-7.2-16-16s7.2-16 16-16h40.8c8.8 0 16 7.2 16 16s-7.2 16-16 16z"  /><path d="M484 1020c-68 0-124-52.8-127.2-120-3.2-52 25.6-99.2 72.8-120.8l-8-154.4c-0.8-8.8 6.4-16 15.2-16.8 8.8-0.8 16 6.4 16.8 15.2l8.8 165.6c0 7.2-4 13.6-10.4 16-40 14.4-64.8 52-62.4 93.6 3.2 52 47.2 92 100.8 89.6 25.6-1.6 48.8-12.8 66.4-31.2 16.8-19.2 25.6-43.2 24-68-2.4-43.2-33.6-79.2-76-88-7.2-1.6-12-7.2-12.8-14.4l-9.6-125.6c0-3.2 0.8-6.4 2.4-9.6l13.6-22.4c4.8-7.2 14.4-9.6 22.4-5.6 7.2 4.8 9.6 14.4 5.6 22.4L515.2 664l8 108.8c50.4 15.2 86.4 60.8 89.6 114.4 1.6 33.6-9.6 66.4-32.8 91.2-22.4 24.8-54.4 40-88 41.6h-8z"  /><path d="M511.2 652.8h-40.8c-8.8 0-16-7.2-16-16s7.2-16 16-16h40.8c8.8 0 16 7.2 16 16s-7.2 16-16 16z"  /><path d="M460.8 652h-3.2c-8-1.6-15.2-4-21.6-8-7.2-4.8-10.4-14.4-5.6-21.6 4.8-7.2 14.4-10.4 21.6-5.6 3.2 2.4 7.2 3.2 11.2 4 8.8 1.6 14.4 9.6 12.8 18.4-0.8 7.2-7.2 12.8-15.2 12.8z"  /><path d="M444.8 645.6c-2.4 0-5.6-0.8-8-2.4-3.2-2.4-6.4-4-9.6-7.2-6.4-5.6-7.2-16-1.6-22.4 5.6-6.4 15.2-8 22.4-2.4 1.6 1.6 4 3.2 5.6 4 7.2 4.8 10.4 14.4 5.6 21.6-4 5.6-9.6 8.8-14.4 8.8z"  /><path d="M436.8 640c-4 0-7.2-1.6-10.4-4-6.4-5.6-7.2-16-1.6-22.4 5.6-6.4 16-7.2 22.4-1.6 6.4 5.6 7.2 16 1.6 22.4-2.4 4-7.2 5.6-12 5.6zM484 939.2c-24.8 0-44.8-19.2-46.4-44-0.8-12 3.2-24 12-33.6 8-8.8 20-14.4 32-15.2 25.6-1.6 47.2 18.4 48.8 44 0.8 12-3.2 24-12 33.6-8 8.8-20 14.4-32 15.2h-2.4z m0-76h-1.6c-8 0.8-16 4-20.8 10.4-5.6 6.4-8 13.6-8 21.6 0.8 16.8 15.2 29.6 32 28.8 8-0.8 16-4 20.8-10.4 5.6-6.4 8-13.6 8-21.6-0.8-16-13.6-28.8-30.4-28.8z"  /><path d="M470.4 652.8c-4 0-8 0-12-0.8-8.8-1.6-14.4-9.6-12.8-18.4 1.6-8.8 9.6-14.4 18.4-12.8 1.6 0 4 0.8 6.4 0.8 8.8 0 16 7.2 16 16 0 8-7.2 15.2-16 15.2zM465.6 585.6c-1.6 0-3.2-0.8-4.8-1.6L448 573.6c-3.2-2.4-4-8-1.6-11.2 2.4-3.2 8-4 11.2-1.6l12.8 10.4c3.2 2.4 4 8 1.6 11.2-1.6 2.4-4 3.2-6.4 3.2z"  /></svg>