<svg class="svg-icon" style="width: 1em; height: 1em;vertical-align: middle;fill: currentColor;overflow: hidden;" viewBox="0 0 1024 1024" version="1.1" xmlns="http://www.w3.org/2000/svg"><path d="M91.2 1020c-23.2 0-45.6-8.8-61.6-25.6-16.8-16.8-26.4-40-25.6-64s10.4-46.4 28-62.4l272-248.8c6.4-5.6 16-5.6 22.4 0.8l78.4 78.4c6.4 6.4 6.4 16 0.8 22.4L156 992c-16 17.6-38.4 28-62.4 28h-2.4z m-39.2-48c11.2 11.2 25.6 16.8 40.8 16 15.2 0 29.6-6.4 40-17.6l238.4-260-56.8-56.8-260 238.4c-11.2 10.4-17.6 24.8-17.6 40-0.8 14.4 4.8 28.8 15.2 40zM514.4 660c-38.4 0-77.6-14.4-106.4-44-28.8-28.8-44-66.4-44-106.4s16-78.4 44-106.4l305.6-305.6c59.2-58.4 154.4-58.4 213.6 0 28.8 28.8 44 66.4 44 106.4s-16 78.4-44 106.4L621.6 616c-29.6 29.6-68 44-107.2 44z m-84-66.4c46.4 46.4 121.6 46.4 168 0L904.8 288c22.4-22.4 35.2-52 35.2-84s-12-61.6-35.2-84c-46.4-46.4-121.6-46.4-168 0L430.4 425.6c-22.4 22.4-35.2 52-35.2 84s12.8 61.6 35.2 84z"  /><path d="M564.8 568c-2.4 0-4-0.8-5.6-2.4-3.2-3.2-3.2-8 0-11.2l305.6-305.6c12-12 18.4-28 18.4-44.8 0-16.8-6.4-32.8-18.4-44.8-3.2-3.2-3.2-8 0-11.2s8-3.2 11.2 0c15.2 15.2 23.2 35.2 23.2 56 0 20.8-8 40.8-23.2 56L570.4 565.6c-1.6 1.6-3.2 2.4-5.6 2.4zM392.8 725.6c-4 0-8-1.6-11.2-4.8l-78.4-78.4c-5.6-5.6-6.4-15.2-0.8-21.6l70.4-86.4c4-4.8 9.6-6.4 16-5.6 5.6 1.6 10.4 5.6 12 11.2 5.6 20 16 38.4 30.4 52.8 14.4 14.4 32.8 24.8 52.8 30.4 5.6 1.6 10.4 6.4 11.2 12 1.6 5.6-0.8 12-5.6 16l-86.4 70.4c-3.2 2.4-7.2 4-10.4 4zM336 630.4l57.6 57.6 53.6-43.2c-14.4-7.2-28-16.8-39.2-28-11.2-11.2-20.8-24.8-28-39.2L336 630.4zM1004 366.4c-4 0-8-1.6-11.2-4.8l-70.4-70.4c-6.4-6.4-6.4-16 0-22.4s16-6.4 22.4 0l70.4 70.4c6.4 6.4 6.4 16 0 22.4-3.2 3.2-7.2 4.8-11.2 4.8zM947.2 424c-4 0-8-1.6-11.2-4.8l-70.4-70.4c-6.4-6.4-6.4-16 0-22.4s16-6.4 22.4 0l70.4 70.4c6.4 6.4 6.4 16 0 22.4-3.2 3.2-7.2 4.8-11.2 4.8zM889.6 480.8c-4 0-8-1.6-11.2-4.8l-70.4-70.4c-6.4-6.4-6.4-16 0-22.4 6.4-6.4 16-6.4 22.4 0l70.4 70.4c6.4 6.4 6.4 16 0 22.4-3.2 3.2-7.2 4.8-11.2 4.8zM832.8 537.6c-4 0-8-1.6-11.2-4.8l-70.4-70.4c-6.4-6.4-6.4-16 0-22.4s16-6.4 22.4 0l70.4 70.4c6.4 6.4 6.4 16 0 22.4-3.2 3.2-7.2 4.8-11.2 4.8zM776 595.2c-4 0-8-1.6-11.2-4.8L694.4 520c-6.4-6.4-6.4-16 0-22.4s16-6.4 22.4 0l70.4 70.4c6.4 6.4 6.4 16 0 22.4-3.2 3.2-7.2 4.8-11.2 4.8zM718.4 652c-4 0-8-1.6-11.2-4.8l-70.4-70.4c-6.4-6.4-6.4-16 0-22.4 6.4-6.4 16-6.4 22.4 0l70.4 70.4c6.4 6.4 6.4 16 0 22.4-3.2 3.2-7.2 4.8-11.2 4.8zM661.6 708.8c-4 0-8-1.6-11.2-4.8l-70.4-70.4c-6.4-6.4-6.4-16 0-22.4 6.4-6.4 16-6.4 22.4 0l70.4 70.4c6.4 6.4 6.4 16 0 22.4-3.2 3.2-7.2 4.8-11.2 4.8zM743.2 106.4c-4 0-8-1.6-11.2-4.8l-70.4-70.4c-6.4-6.4-6.4-16 0-22.4 6.4-6.4 16-6.4 22.4 0l70.4 70.4c6.4 6.4 6.4 16 0 22.4-2.4 3.2-6.4 4.8-11.2 4.8zM686.4 163.2c-4 0-8-1.6-11.2-4.8L604.8 88c-6.4-6.4-6.4-16 0-22.4 6.4-6.4 16-6.4 22.4 0l70.4 70.4c6.4 6.4 6.4 16 0 22.4-3.2 3.2-7.2 4.8-11.2 4.8zM629.6 220c-4 0-8-1.6-11.2-4.8l-70.4-70.4c-6.4-6.4-6.4-16 0-22.4 6.4-6.4 16-6.4 22.4 0l70.4 70.4c6.4 6.4 6.4 16 0 22.4-3.2 3.2-7.2 4.8-11.2 4.8zM572 277.6c-4 0-8-1.6-11.2-4.8l-70.4-70.4c-6.4-6.4-6.4-16 0-22.4 6.4-6.4 16-6.4 22.4 0l70.4 70.4c6.4 6.4 6.4 16 0 22.4-2.4 3.2-7.2 4.8-11.2 4.8zM515.2 334.4c-4 0-8-1.6-11.2-4.8l-70.4-70.4c-6.4-6.4-6.4-16 0-22.4 6.4-6.4 16-6.4 22.4 0l70.4 70.4c6.4 6.4 6.4 16 0 22.4-3.2 3.2-7.2 4.8-11.2 4.8zM458.4 391.2c-4 0-8-1.6-11.2-4.8l-70.4-70.4c-6.4-6.4-6.4-16 0-22.4 6.4-6.4 16-6.4 22.4 0l70.4 70.4c6.4 6.4 6.4 16 0 22.4-3.2 3.2-7.2 4.8-11.2 4.8zM400.8 448.8c-4 0-8-1.6-11.2-4.8l-70.4-70.4c-6.4-6.4-6.4-16 0-22.4s16-6.4 22.4 0l70.4 70.4c6.4 6.4 6.4 16 0 22.4-3.2 3.2-7.2 4.8-11.2 4.8z"  /></svg>