<svg class="svg-icon" style="width: 1em; height: 1em;vertical-align: middle;fill: currentColor;overflow: hidden;" viewBox="0 0 1024 1024" version="1.1" xmlns="http://www.w3.org/2000/svg"><path d="M676.330667 205.781333h134.442666v119.658667a22.4 22.4 0 0 0 44.8 0V160.896h-179.264a22.442667 22.442667 0 1 0 0.021334 44.885333zM974.229333 518.464L512.021333 85.312 49.792 517.184a22.421333 22.421333 0 0 0 30.592 32.789333L511.978667 146.730667l431.637333 404.48a22.357333 22.357333 0 0 0 31.68-1.045334 22.442667 22.442667 0 0 0-1.066667-31.701333z" fill="#1C1C1C" /><path d="M833.194667 527.36c-12.373333 0-22.4 10.048-22.4 22.442667v344.021333h-179.264V654.485333H392.490667v239.317334H213.226667V549.781333a22.4 22.4 0 1 0-44.821334 0V938.666667h268.906667V699.370667h149.397333v239.317333h268.906667v-388.906667a22.464 22.464 0 0 0-22.421333-22.421333z" fill="#1C1C1C" /></svg>